# xmcd
# 
# Track frame offsets:
#     150
#     19245
#     44932
#     63382
#     78232
#     98760
#     116610
#     132937
#     151912
#     170812
#     195787
#     221962
# 
# Disc length: 3210
# 
# Revision: 2
# Processed by: cddbd v1.5.2PL0 Copyright (c) Steve Scherf et al.
# Submitted via: fre:ac v1.0.31
# 
DISCID=a70c880c
DTITLE=岩沢幸矢 - BAREFOOT
DYEAR=1998
DGENRE=JPop
TTITLE0=江ノ鎌
TTITLE1=Honolulu City Lights
TTITLE2=Sailing on the Borderline
TTITLE3=Lazy Afternoon
TTITLE4=Hello Oldies
TTITLE5=アレハ？
TTITLE6=Silver Wing
TTITLE7=Good Morning
TTITLE8=Barefoot on the Beach
TTITLE9=Lavender Blue (TV Mix)
TTITLE10=Honolulu City Lights (TV Mix)
TTITLE11=アレハ？ (TV Mix)
EXTD=
EXTT0=
EXTT1=
EXTT2=
EXTT3=
EXTT4=
EXTT5=
EXTT6=
EXTT7=
EXTT8=
EXTT9=
EXTT10=
EXTT11=
PLAYORDER=
